<?xml version="1.0" encoding="UTF-8" standalone="no"?>
<!-- Generator: Adobe Illustrator 24.0.2, SVG Export Plug-In . SVG Version: 6.00 Build 0)  -->

<svg
   xmlns:dc="http://purl.org/dc/elements/1.1/"
   xmlns:cc="http://creativecommons.org/ns#"
   xmlns:rdf="http://www.w3.org/1999/02/22-rdf-syntax-ns#"
   xmlns:svg="http://www.w3.org/2000/svg"
   xmlns="http://www.w3.org/2000/svg"
   xmlns:sodipodi="http://sodipodi.sourceforge.net/DTD/sodipodi-0.dtd"
   xmlns:inkscape="http://www.inkscape.org/namespaces/inkscape"
   version="1.1"
   id="Layer_1"
   x="0px"
   y="0px"
   viewBox="0 0 1900 700"
   style="enable-background:new 0 0 1900 700;"
   xml:space="preserve"
   sodipodi:docname="monk.svg"
   inkscape:version="0.92.5 (2060ec1f9f, 2020-04-08)"><metadata
   id="metadata72"><rdf:RDF><cc:Work
       rdf:about=""><dc:format>image/svg+xml</dc:format><dc:type
         rdf:resource="http://purl.org/dc/dcmitype/StillImage" /></cc:Work></rdf:RDF></metadata><defs
   id="defs70" /><sodipodi:namedview
   pagecolor="#ffffff"
   bordercolor="#666666"
   borderopacity="1"
   objecttolerance="10"
   gridtolerance="10"
   guidetolerance="10"
   inkscape:pageopacity="0"
   inkscape:pageshadow="2"
   inkscape:window-width="924"
   inkscape:window-height="1016"
   id="namedview68"
   showgrid="false"
   inkscape:zoom="1.4610526"
   inkscape:cx="364.78424"
   inkscape:cy="565.21231"
   inkscape:window-x="72"
   inkscape:window-y="27"
   inkscape:window-maximized="0"
   inkscape:current-layer="Layer_1" />
<style
   type="text/css"
   id="style2">
	.st0{fill:#0D081E;}
	.st1{fill:#FFFFFF;}
	.st2{fill:#060015;}
</style>
<path
   class="st0"
   d="M -2.2540292,703.4981 H 1999.984 c 0,0 -242.8321,-675.6406 -893.3216,-418.94344 C 449.96436,543.76648 316.699,-0.77963468 316.699,-0.77963468 L -2.2540292,-0.60852517 Z"
   id="path4"
   inkscape:connector-curvature="0"
   style="fill:#0d081e;stroke-width:1.00361526"
   sodipodi:nodetypes="cccccc" />
<path
   class="st1"
   d="m 152.5,263.9 c 0.2,-1.6 0.5,-3.5 -1.6,-5 -0.2,-0.2 -0.8,-0.4 -1.3,-0.6 -2.3,-0.7 -4,0.7 -5.2,2.5 0.3,-2.1 0.5,-4.7 0,-7.3 h 0.1 v 0 c 0,0 0.1,0 0.1,0.1 h 0.1 c 0,0 0.1,0.1 0.2,0.1 0,0 0.1,0 0.1,0.1 0.1,0 0.1,0.1 0.2,0.1 0.1,0 0.1,0 0.2,0.1 0.1,0 0.1,0.1 0.2,0.1 0.1,0 0.1,0.1 0.2,0.1 0.1,0 0.2,0.1 0.2,0.1 0.1,0 0.2,0 0.2,0.1 0.1,0 0.2,0 0.2,0.1 0.1,0 0.2,0 0.2,0.1 0.1,0 0.2,0 0.2,0.1 h 0.2 0.2 0.2 0.2 0.2 0.2 l 0.2,-0.1 0.2,-0.1 c 0.1,0 0.2,-0.1 0.2,-0.1 0.1,0 0.2,-0.1 0.2,-0.2 0.1,-0.1 0.2,-0.1 0.2,-0.2 0,-0.1 0.2,-0.1 0.2,-0.2 0,-0.1 0.2,-0.2 0.2,-0.2 l 0.2,-0.2 c 0.1,-0.1 0.2,-0.2 0.2,-0.3 l 0.2,-0.2 v 0 c 0.1,-0.1 0.2,-0.2 0.2,-0.3 0,0 -2.2,1.6 -4.4,-1.2 0,0 0.8,0.2 1.7,-0.2 v 0 c 0,0 0.1,0 0.1,-0.1 0,0 0.1,0 0.1,-0.1 0.1,0 0.2,-0.1 0.2,-0.1 0.1,0 0.1,-0.1 0.2,-0.1 0.1,0 0.1,-0.1 0.2,-0.1 l 0.2,-0.2 c 0.1,0 0.1,-0.1 0.2,-0.2 0.1,-0.1 0.2,-0.1 0.2,-0.2 0,0 0.1,-0.1 0.1,-0.2 0.2,-0.2 0.3,-0.4 0.4,-0.6 0,0 0,-0.1 0.1,-0.1 0,-0.1 0.1,-0.2 0.1,-0.2 0.1,-0.1 0.1,-0.2 0.2,-0.3 0,-0.1 0.1,-0.1 0.1,-0.2 0.1,-0.1 0.1,-0.2 0.2,-0.4 v 0 c 0,-0.1 0,-0.1 0.1,-0.2 0,0 -0.7,1.1 -2.7,0.7 -2,-0.3 -4.4,-1.9 -9.4,-5.9 -4.8,-3.9 -16.6,-8.7 -26.3,-3.4 -0.2,-0.6 -0.7,-1 -1.3,-1.2 -0.6,-0.2 -1.2,0 -1.7,0.3 -0.8,0.7 -1.4,1.7 -1.7,2.5 0.1,-5.1 0.3,-9.8 0.9,-14.2 0.1,-0.4 0.2,-0.9 0.2,-1.3 0.6,-0.1 3.2,-0.6 4.1,-2.2 0.3,-0.6 0.4,-1.2 0.2,-1.8 -0.2,-0.5 -0.6,-0.9 -1.1,-1 -0.5,-0.2 -1.1,0.1 -1.5,0.5 -0.5,0.5 -0.9,1.3 -1.2,2.1 0.9,-5.3 2.4,-10.3 4.3,-14.8 3.9,-9 6.98556,-10.13169 8.4589,-12.88668 l 0.71333,-1.0561 C 122.28417,194.09149 122.4,194 122.3,193.9 h -0.2 c -2.28835,-1.22498 -6.6,4.4 -8,6.6 -1.6,2.5 -3,5.3 -4.4,8.6 0,-0.3 -0.1,-0.7 -0.1,-0.9 -0.2,-0.9 -0.7,-1.6 -1.6,-1.8 -0.6,-0.2 -1.2,0 -1.6,0.4 -0.6,0.4 -0.9,1.1 -1,2 -0.2,2.1 1.7,4.4 2.5,5.3 -1.2,4.1 -2.1,8.3 -2.5,12.5 -0.1,-0.3 -0.2,-0.7 -0.2,-1 -0.3,-0.7 -0.8,-1.2 -1.5,-1.4 -0.7,-0.2 -1.3,0 -1.8,0.5 -0.6,0.5 -0.8,1.3 -0.7,2.2 0.2,2.5 3.3,4.7 3.8,5 -0.3,4.1 -0.4,8.2 -0.4,12.2 -0.2,-0.6 -0.4,-1.2 -0.7,-1.6 -0.2,-0.4 -0.7,-0.7 -1.1,-0.8 -0.6,-0.2 -1.2,0.1 -1.6,0.6 -0.5,0.6 -0.6,1.3 -0.3,2.1 0.5,1.7 2.5,2.8 3.5,3.2 0,0 0,0.1 -0.1,0.1 -0.1,0.2 -0.2,0.4 -0.3,0.7 -0.2,0.2 -0.2,0.5 -0.4,0.7 -0.1,0.2 -0.2,0.4 -0.3,0.7 -0.1,0.2 -0.2,0.6 -0.3,0.8 -0.1,0.2 -0.2,0.4 -0.2,0.7 -0.1,0.2 -0.2,0.6 -0.3,0.8 -0.1,0.2 -0.2,0.4 -0.2,0.7 -0.1,0.3 -0.2,0.6 -0.2,0.9 -0.1,0.2 -0.1,0.4 -0.2,0.7 -0.1,0.3 -0.2,0.7 -0.2,1 0,0.2 -0.1,0.4 -0.1,0.7 -0.1,0.3 -0.1,0.7 -0.1,1 0,0.2 -0.1,0.4 -0.1,0.6 v 1.2 0.5 c 0,0.6 0.1,1.1 0.2,1.6 0.4,3.1 1.6,6.2 3.3,9 -0.2,-0.2 -0.4,-0.2 -0.7,-0.3 -0.6,-0.2 -1.2,0.1 -1.6,0.6 -0.5,0.6 -0.6,1.4 -0.3,2.2 0.7,2.2 4,3.3 4.2,3.3 h 0.1 c 0.2,2.4 0.5,4.8 0.7,7.2 -1,1.2 -1.4,1.8 -2.5,2.2 -1.5,0.6 -3.8,-1.2 -5.300005,-2.7 -1.5,-1.5 -1.7,-3.1 -1.7,-3.1 0,0 -0.2,0.2 -0.4,0.6 -0.1,-0.2 -0.2,-0.4 -0.2,-0.7 0,-0.2 -0.1,-0.2 -0.1,-0.4 0,-0.2 -0.1,-0.2 -0.1,-0.4 -0.2,-1.1 -0.5,-1.9 -1.6,-3.4 -0.1,-0.2 -1,-1.6 -1.5,-2.4 -0.1,-0.2 -0.2,-0.4 -0.2,-0.6 -0.2,-0.6 -0.6,-1.2 -1.9,-2.2 -1.1,-0.8 -1.9,-1.3 -2.6,-1.5 -0.7,-0.2 -1.3,-0.1 -1.7,0.4 -0.2,0.2 -0.2,0.4 -0.2,0.6 0.1,0.5 0.5,0.9 1.3,1.3 0.7,0.4 1.5,1 2.1,1.6 0.1,0.1 0.2,0.2 0.3,0.5 -0.3,-0.3 -0.7,-0.7 -1.1,-0.9 -0.8,-0.7 -1.9,-1.4 -2.7,-1.6 -0.1,0 -0.2,0 -0.2,-0.1 -0.7,-0.1 -1.5,0.2 -1.8,0.6 -0.2,0.2 -0.2,0.5 -0.2,0.7 0.1,0.8 0.9,1 1.2,1.1 0.2,0.1 0.4,0.1 0.7,0.1 h 0.1 c 0.4,0.1 1,0.6 1.5,1.1 -0.5,-0.2 -1.2,-0.4 -1.5,-0.5 -0.2,0 -0.2,-0.1 -0.3,-0.1 -0.4,-0.1 -1.5,0.2 -2,0.7 -0.2,0.3 -0.3,0.7 -0.2,1.2 0.1,0.4 0.9,0.7 1.5,0.9 h 0.1 c 0.2,0 0.3,0.1 0.6,0.1 0.2,0.1 0.4,0.1 0.7,0.2 -0.6,0.2 -1.2,0.6 -1.5,0.7 -0.2,0.2 -0.5,0.5 -0.6,0.8 -0.1,0.2 0,0.6 0.2,0.8 0.1,0.2 0.3,0.3 0.6,0.4 0.4,0.1 1,0 1.5,-0.1 0.7,-0.2 1.4,-0.2 2,0 0.1,0 0.2,0 0.2,0.1 0.4,0.2 0.4,0.2 0.5,0.7 0,0.2 0,0.2 0.1,0.5 0,0.1 0,0.2 0.1,0.2 0.2,0.8 0.4,2.2 1.5,3 0.2,0.2 0.6,0.3 0.9,0.4 0.8,0.2 1.6,-0.1 2.1,-0.2 h -0.6 v 0 c 0.2,0.1 0.8,0.4 1.6,1.3 0.7,0.8 4.500005,4.4 7.600005,5.3 -0.6,0.8 -1,1.6 -1.3,2.6 -0.7,-0.7 -1.2,-1 -1.3,-1.1 -0.7,-0.7 -1.600005,-1.2 -2.100005,-1.4 -1.5,-0.4 -3,1.6 -4.3,3.5 v 0 c -0.1,0.2 -0.2,0.2 -0.2,0.4 -0.1,0.2 -0.2,0.2 -0.2,0.4 0,0 -0.3,-0.2 -0.8,-0.6 v 0 c -1.3,-0.9 -4.1,-2.5 -8.1,-3.3 -5.5,-1.2 -7.2,0.1 -9,0.1 -1.8,0 -2.1,-0.3 -2.4,-0.6 -0.2,-0.2 -0.5,1 0.9,1.6 0,0 -0.5,-0.1 -0.8,-0.1 h -0.1 c -0.1,0 -0.2,-0.1 -0.3,-0.1 -0.1,0 -0.2,-0.1 -0.3,-0.1 h -0.2 -0.2 c -0.4,-0.1 -0.8,-0.2 -1.2,-0.4 -1.2,-0.7 -1.7,-2.1 -2.2,-3.5 l -0.1,-0.2 -0.1,-0.1 c -0.3,-0.9 -0.7,-2 -1.4,-2.7 0.2,-1 0.2,-2 0,-2.8 -0.2,-0.7 -1,-1.4 -1.6,-1.6 -0.2,0 -0.2,-0.1 -0.4,-0.1 -0.7,0 -1.2,0.5 -1.4,1.3 -0.4,0 -0.7,0.2 -0.8,0.5 -0.1,0.2 -0.2,0.3 -0.2,0.6 -0.2,0 -0.5,0.1 -0.7,0.2 -0.2,0.2 -0.2,0.3 -0.2,0.7 -0.2,0 -0.3,0.1 -0.4,0.2 -0.2,0.2 -0.2,0.5 -0.2,0.8 -0.2,0.1 -0.3,0.2 -0.4,0.3 -0.2,0.3 -0.2,0.7 0,1.2 0.2,0.4 0.7,1 1.2,1.2 0,1.8 1.2,3.3 2.3,4.5 0.2,0.3 0.5,0.6 0.7,0.9 0.6,0.7 1,1.6 1.4,2.5 0.3,0.7 0.7,1.5 1.2,2.1 0.7,1.2 1.6,2 2.5,2.1 0.3,0.1 0.7,0.1 1.1,0 1,-0.2 1.5,-0.7 1.7,-1.7 0.2,-0.4 0.2,-0.7 0.5,-0.9 0,0.3 0.7,-0.2 1.2,-0.4 0.1,0 0.2,0 0.2,-0.1 0,0.2 -0.7,1 0,1.5 0,0 0.5,-0.8 3,-1.2 2.5,-0.5 8.1,-1.2 12.5,4.5 l -0.6,0.6 v 0 c -0.2,0.2 -0.5,0.3 -0.7,0.3 l 0.1,0.1 v 0 h 0.1 c 0,0 0.1,0.1 0.2,0.1 v 0 h 0.2 0.1 0.1 c -0.1,0.1 -0.2,0.2 -0.3,0.2 -0.4,0.2 -0.8,0.2 -1.3,0.1 -0.4,-0.1 -0.9,-0.3 -1.4,-0.7 -0.2,-0.2 -0.6,-0.4 -0.9,-0.7 -0.7,-0.5 -1.5,-1.1 -2.3,-1.3 -0.2,-0.5 -0.4,-1.1 -0.7,-1.6 -0.2,-0.2 -0.6,-0.7 -1.2,-0.8 -0.1,0 -0.2,-0.1 -0.3,0 -0.3,0 -0.7,0.2 -0.8,0.6 -0.1,-0.1 -0.2,-0.1 -0.2,-0.1 -0.5,-0.2 -1,0.1 -1.2,0.4 -0.1,0.1 -0.1,0.2 -0.2,0.3 -0.5,-0.1 -0.9,0.2 -1.1,0.6 -0.2,0.1 -0.6,0.3 -0.7,0.6 -0.1,-0.1 -0.2,-0.1 -0.3,-0.2 -0.5,-0.1 -0.9,0.1 -1.3,0.5 -0.5,0.6 -0.7,1.4 -0.5,2.1 0.3,1.2 1.2,2.1 2.2,2.5 0.2,0.1 0.2,0.1 0.4,0.1 0.2,0.1 0.5,0.1 0.7,0.1 0.7,1.5 2.9,2.1 4.4,2.6 0.3,0.1 0.6,0.2 0.8,0.2 1.6,0.6 3,1.2 4.6,2 0.7,0.3 1.5,0.7 2.2,0.9 0,0 0.1,0 0.1,0.1 0.3,0.2 0.7,0.2 1,0.3 1.2,0.3 2.4,0.2 3.1,-0.4 0.5,-0.4 0.7,-0.9 0.8,-1.6 0.1,-0.7 -0.1,-1.5 -0.2,-2.1 0.4,0.6 1,1.2 1.6,1.8 0,0 2.800005,3.3 8.000005,4.4 -0.7,1.3 -1.6,2.5 -2.5,3.7 -2.1,2.6 -4.900005,4.7 -6.900005,6.2 -1.2,0.9 -2.6,1.9 -4.3,3 0.7,-0.8 1.5,-1.8 1.8,-2.9 0.2,-0.7 0.2,-1.4 -0.1,-1.9 -0.2,-0.5 -0.7,-0.9 -1.3,-1.1 -0.9,-0.2 -1.7,0.2 -2.4,1.1 -1.3,1.9 -0.6,5.4 -0.4,6.3 -0.7,0.5 -1.5,1.1 -2.1,1.8 -0.5,0.6 -1,1.3 -1.5,2.1 -0.4,0.7 -0.7,1.4 -1.2,2.3 -0.3,0.9 -0.7,1.8 -0.8,2.9 -0.1,-0.7 -0.2,-1.2 -0.5,-1.8 -0.2,-0.5 -0.7,-0.8 -1.2,-1 -0.5,-0.2 -1.1,0 -1.5,0.5 -0.4,0.5 -0.7,1.2 -0.5,1.9 0.3,1.9 2.7,3.3 3.3,3.6 0,2.8 0.8,5.3 2.3,7.1 0.5,0.6 1.9,2.1 3.6,2.5 0.7,0.2 1.2,0.2 1.8,0 1.8,-0.6 3,-2.3 3.1,-4.3 0,-1.7 -0.7,-2.9 -1.8,-3.2 -0.3,-0.1 -0.7,-0.1 -1.2,0 -0.7,0.2 -1.6,0.9 -1.8,1.7 -0.2,0.5 -0.1,1 0.1,1.4 0.1,0.7 0.5,1.2 1.1,1.3 h 0.3 c 0.4,0.1 0.8,-0.1 1.1,-0.5 0.1,-0.2 0.2,-0.3 0.2,-0.5 0,0.2 -0.1,0.4 -0.2,0.6 -0.4,1.1 -1.3,1.5 -2.3,1.2 -0.3,-0.1 -0.7,-0.2 -0.9,-0.4 -3.1,-2.2 -3.2,-6.2 -2.7,-9.3 0.2,-0.9 0.4,-1.7 0.7,-2.5 0.1,0 0.2,0.1 0.2,0.1 1.1,0.2 3.5,0.7 4.8,-0.2 0.5,-0.4 0.7,-1 0.7,-1.6 -0.2,-0.7 -0.8,-1.4 -1.6,-1.6 -0.3,-0.1 -0.7,-0.1 -1.1,0 -0.6,0.2 -1.2,0.6 -1.6,1 2,-2.6 5,-4.4 7.9,-6.2 1.6,-1 3.2,-1.9 4.600005,-3 3.8,-3 6.7,-6.4 8.5,-10.2 1.6,-0.1 3.2,-0.3 5,-0.9 -0.7,1.9 -1.3,3.9 -1.4,5.8 -0.2,3.5 0.4,6.9 2.3,9.9 3.5,5.7 11.5,5.5 16.4,2.5 0.3,-0.2 0.6,-0.4 0.8,-0.6 l 0.2,-0.2 c 0.2,-0.2 0.4,-0.3 0.6,-0.5 l 0.2,-0.2 0.7,-0.7 0.1,-0.1 c 0.2,-0.2 0.4,-0.5 0.6,-0.8 0.1,-0.1 0.2,-0.2 0.2,-0.3 0.2,-0.2 0.2,-0.4 0.4,-0.7 0.1,-0.1 0.1,-0.2 0.2,-0.3 0.2,-0.3 0.3,-0.7 0.5,-1 v 0 c 0.3,-0.7 0.6,-1.6 0.7,-2.4 0.4,-1.9 0.1,-3.9 -0.4,-5.8 -0.3,-1.5 -0.7,-3 -1,-4.4 -0.1,-0.3 -0.2,-0.7 -0.2,-1.1 V 311 c -0.1,-0.4 -0.1,-0.8 -0.2,-1.2 -0.2,-3.6 0.6,-8.4 3.4,-10.7 2.8,-2.3 10.2,-2.5 10.4,2.5 0.1,1.6 -0.3,4.1 -1.2,5.4 -0.7,1.1 -1.7,2 -3,1.8 -0.6,-0.1 -1.9,-1.6 -0.7,-1.8 0.2,0 0.2,-0.1 0.4,-0.1 0,0 0.1,0 0.1,-0.1 0.1,-0.1 0.2,-0.1 0.2,-0.2 0,0 0.1,0 0.1,-0.1 l 0.2,-0.2 v 0 c 0.1,-0.2 0.2,-0.3 0.2,-0.5 v -0.2 c 0.3,-1.2 -0.8,-2 -1.8,-1.8 -0.5,0.1 -1.1,0.3 -1.6,0.7 -0.1,0.1 -0.2,0.1 -0.2,0.2 -0.1,0 -0.1,0.1 -0.2,0.1 l -0.3,0.3 -0.1,0.1 c -0.1,0.1 -0.2,0.2 -0.2,0.3 0,0 0,0.1 -0.1,0.1 -0.1,0.2 -0.2,0.2 -0.2,0.4 v 0.1 c -0.1,0.2 -0.1,0.3 -0.1,0.5 -0.2,2 0.7,3.2 2.1,4.3 3.1,2.5 6.7,-0.9 7.9,-3.9 0.2,-0.3 0.2,-0.6 0.3,-0.9 v 0 0 c 1,-3.2 0.3,-6.9 -2.1,-9.2 -2.5,-2.4 -6.2,-2.5 -9.1,-1.6 -1.5,0.4 -2.7,1.2 -3.8,2.3 0,0 0,-0.1 0.1,-0.1 l -0.2,0.2 c -0.2,0.2 -0.5,0.6 -0.7,0.9 0,0.1 -0.1,0.1 -0.2,0.2 -0.2,0.3 -0.5,0.7 -0.7,1.2 -0.1,0.1 -0.1,0.2 -0.2,0.2 -0.2,0.3 -0.3,0.7 -0.5,1.1 0,0.1 -0.1,0.2 -0.1,0.2 -0.2,0.4 -0.3,0.9 -0.5,1.3 0,0.1 -0.1,0.2 -0.1,0.2 l -0.3,1.2 c 0,0.1 -0.1,0.2 -0.1,0.3 -0.1,0.5 -0.2,0.9 -0.2,1.4 v 0.2 c -0.1,0.4 -0.1,0.8 -0.1,1.2 v 0.3 1.3 c 0.1,1.8 0.4,3.7 1,5.4 0.7,2.1 1.2,4.1 1.3,6.3 v 0.7 c 0,0.1 0,0.2 -0.1,0.3 0,0.2 -0.1,0.2 -0.1,0.4 0,0.1 -0.1,0.2 -0.1,0.3 0,0.1 -0.1,0.2 -0.1,0.3 0,0.1 -0.1,0.2 -0.1,0.3 -0.1,0.1 -0.1,0.2 -0.2,0.3 -0.1,0.1 -0.1,0.2 -0.2,0.3 -0.1,0.2 -0.2,0.2 -0.2,0.4 0,0.1 -0.1,0.2 -0.1,0.2 -0.4,0.7 -0.8,1.3 -1.2,1.9 -2.8,3.6 -8.3,4.3 -12.1,2.1 -3.8,-2.1 -5,-5.8 -4.8,-9.9 v 0 c 0,-0.4 0.1,-0.8 0.1,-1.2 v -0.2 c 0.1,-0.3 0.1,-0.7 0.2,-1 0,-0.1 0,-0.2 0.1,-0.3 0.1,-0.3 0.2,-0.7 0.2,-1 0,-0.1 0,-0.2 0.1,-0.2 l 0.3,-1.2 c 0.2,-1 0.7,-1.9 1,-2.8 1.9,-1.4 3.7,-3.8 4.5,-7.9 0.2,0.1 0.5,0.2 0.7,0.2 1,0.3 2.7,0.7 4.4,0.1 0.2,-0.1 0.3,-0.2 0.5,-0.3 v 0 0 c 2,-1.6 2.4,-7.4 0.8,-12.3 -0.5,-1.5 -1,-2.9 -1.6,-4.1 5.6,1 13.1,-0.1 18.1,-7.9 0.6,-0.2 4.3,-1.7 5.8,-5 0.6,-1.3 0.8,-2.1 0.7,-2.6 -0.1,-0.2 -0.2,-0.3 -0.3,-0.4 -0.3,-0.2 -0.9,0 -1.4,0.2 -0.1,-0.2 -0.2,-0.5 -0.2,-0.9 2.2,-0.6 3.4,-3.5 3.7,-5.5 z m -41.4,13.9 c -0.4,0.5 -0.7,1.1 -1.1,1.6 -0.1,-1 -0.2,-1.9 -0.3,-2.9 0.5,0.3 0.9,0.8 1.4,1.3 z m -3.2,-35 -0.2,0.2 c -0.2,0.2 -0.3,0.3 -0.5,0.6 v 0 -0.7 c 0.2,0 0.4,0 0.7,-0.1 z M 106,272 c 0,0.2 0,0.4 0.1,0.6 -0.1,-0.3 -0.2,-0.7 -0.3,-1 0,0.2 0.1,0.3 0.2,0.4 z"
   id="path6"
   inkscape:connector-curvature="0"
   style="fill:#ffffff"
   sodipodi:nodetypes="cccccccccccscsscccccccccccccccsscsccccccccccsccscccccccccccccscccccccscccscccccccccccscccccccccccccscsccsscsscsccsccsccccccsscccccscccscccccccscccccccsccccccccccccccccccccsccccccccsscsssscccccccccscccccsccccccccccccccccccccccccccccccccccccccccccccccccsccccccsccccscccccccccccssccscscccccccccccccccccccccccccccsssccscccccccccsccsccccccccccscsccccsccscccccccccccsccccccccccscsccccscssscscscccccscccscccccccccccccccccccccccscccccccc" />
<path
   id="XMLID_11584_"
   class="st2"
   d="M -3.6027175,0 H 316.262 c -7.00434,27.7 -31.51952,69.4 -35.5081,81.2 -6.32336,18.4 -10.11737,34.2 -36.48092,22.4 C 217.71487,91.7 139.98619,81.2 122.96176,83.9 105.93733,86.6 84.535188,82.6 54.377627,64.2 43.579274,57.5 5.4445509,54.4 -3.7,53 -3.5054351,39.5 -3.6027175,13.5 -3.6027175,0 Z"
   inkscape:connector-curvature="0"
   style="fill:#060015;stroke-width:0.98631871" />
<path
   class="st1"
   d="M 116.4,199.2 158.1,133 c 0,0 3.3,-2.8 1.3,1 -2,3.8 -38.25499,61.91054 -38.25499,61.91054 z"
   id="path9"
   inkscape:connector-curvature="0"
   style="fill:#ffffff"
   sodipodi:nodetypes="ccscc" />
<path
   class="st1"
   d="M144.9,153.1l41.7-66.2c0,0,3.3-2.8,1.3,1c-2,3.8-37.1,59.9-37.1,59.9L144.9,153.1z"
   id="path11" />
<g
   id="g65"
   transform="matrix(1.1621532,0,0,1.1143683,-4.0807143,-70.511644)">
	<path
   class="st1"
   d="m 1279,507 c 0,0 0.7,-3.5 2.3,-5.8 1.6,-2.4 2.5,-3.6 2.9,-3.1 0.4,0.5 0.2,1.8 0.3,2.2 0.1,0.5 0.9,0.4 1.6,-0.2 0.7,-0.7 1.6,-1.7 2.6,-1.8 1,-0.1 1.8,0.4 2,0.2 0.2,-0.1 0.7,-0.2 0.9,0 0.2,0.2 -0.8,0.5 -1.1,1.3 -0.3,0.8 -0.3,1.5 -0.3,1.5 0,0 1,-1.6 1.9,-0.6 0.9,1 1.2,1.7 2.6,3 1.3,1.3 8.3,9.4 9.5,11.4 1.2,2 -0.8,0.7 -1.5,0.1 -0.7,-0.6 -6.9,-0.5 -10.4,-4.7 -1.3,-1.6 -4.9,0.9 -6.3,0.3 -1.4,-0.5 -2.7,-0.9 -3.1,-1 -0.4,-0.1 -2.8,3.8 -3.3,5.7 -0.5,1.9 -2.7,-0.1 -3,-2.9 -0.4,-2.8 -0.1,-3.3 0.2,-3.3 0.4,-0.1 2.2,-0.6 3.2,-1.3 1,-0.7 0.4,-1.2 0.2,-1 -0.3,0 -1,0.6 -1.2,0 z"
   id="path13"
   inkscape:connector-curvature="0"
   style="fill:#ffffff" />
	<path
   class="st1"
   d="m 1376.8,570.5 c 0,0 0.4,-3 1.6,-5.2 1.2,-2.1 1.9,-3.3 2.2,-3 0.4,0.4 0.2,1.5 0.4,1.9 0.1,0.4 0.8,0.2 1.4,-0.4 0.5,-0.7 1.3,-1.6 2.1,-1.8 0.8,-0.2 1.5,0.1 1.7,0 0.2,-0.1 0.5,-0.3 0.7,-0.1 0.2,0.2 -0.7,0.5 -0.9,1.2 -0.2,0.7 -0.2,1.2 -0.2,1.2 0,0 0.8,-1.5 1.6,-0.7 0.9,0.7 1.1,1.3 2.3,2.2 1.2,1 7.5,7 8.6,8.5 1.1,1.6 -0.6,0.6 -1.2,0.2 -0.6,-0.4 -5.8,0.4 -9,-2.9 -1.2,-1.2 -4,1.3 -5.2,1 -1.2,-0.3 -2.4,-0.4 -2.7,-0.5 -0.3,-0.1 -2.2,3.5 -2.4,5.2 -0.3,1.6 -2.2,0.2 -2.7,-2.1 -0.4,-2.3 -0.2,-2.8 0.1,-2.9 0.3,-0.1 1.8,-0.8 2.6,-1.5 0.8,-0.7 0.3,-1 0.1,-0.9 -0.3,0.5 -0.9,1.1 -1.1,0.6 z"
   id="path15"
   inkscape:connector-curvature="0"
   style="fill:#ffffff" />
	<path
   class="st1"
   d="m 1239.9,544 c 0,0 0.2,-2 1.1,-3.5 0.8,-1.5 1.3,-2.2 1.5,-2 0.2,0.3 0.2,1 0.2,1.3 0.1,0.2 0.5,0.2 0.9,-0.2 0.4,-0.4 0.9,-1.1 1.4,-1.2 0.5,-0.1 1,0.1 1.2,0 0.1,-0.1 0.4,-0.2 0.5,-0.1 0.1,0.1 -0.4,0.4 -0.6,0.8 -0.1,0.5 -0.1,0.9 -0.1,0.9 0,0 0.5,-1 1.1,-0.5 0.6,0.5 0.7,0.9 1.6,1.5 0.8,0.7 5,4.7 5.8,5.8 0.7,1 -0.4,0.4 -0.9,0.1 -0.5,-0.3 -3.9,0.2 -6.1,-1.9 -0.8,-0.8 -2.7,0.9 -3.5,0.7 -0.8,-0.2 -1.6,-0.3 -1.8,-0.3 -0.2,0 -1.5,2.4 -1.6,3.5 -0.2,1.1 -1.5,0.2 -1.8,-1.4 -0.3,-1.6 -0.2,-1.9 0.1,-1.9 0.2,-0.1 1.3,-0.5 1.8,-1 0.5,-0.5 0.2,-0.7 0.1,-0.5 -0.4,-0.3 -0.8,0.1 -0.9,-0.1 z"
   id="path17"
   inkscape:connector-curvature="0"
   style="fill:#ffffff" />
	<path
   class="st1"
   d="m 1252.1,575.3 c 0,0 3.7,-3.4 5.4,-3.6 1.7,-0.2 2.9,-0.1 2.7,0.9 -0.2,1 -0.5,3.9 0.1,4.9 0.5,1 0.5,1.6 1.3,0.4 0.8,-1.2 1.1,-3 1.7,-2.2 0.6,0.9 0.3,1.9 1,1.6 0.7,-0.3 0.7,-0.3 1,-0.3 0.3,0.1 0.5,-0.2 0.9,-0.3 0.3,-0.1 -0.4,0.5 -0.5,0.8 -0.1,0.3 -0.4,1.9 -0.7,2.7 -0.4,0.7 -0.5,1.6 -0.5,1.6 0,0 0.6,2.2 1.5,5.3 0.9,3.1 1.3,4.7 0,3.1 -1.3,-1.6 -0.8,-1.8 -1.9,-2.6 -1.2,-0.9 -2,-2.1 -2.2,-2.8 0,0 -2.1,1.6 -3,1.3 -0.9,-0.2 -1.2,1.3 -1.9,2.2 -0.8,0.9 -1.7,1.2 -2.9,-0.6 -1.2,-1.8 -0.4,-3.3 -0.1,-3.6 0.4,-0.2 1.8,-0.2 2.5,-0.6 0.7,-0.4 1.4,-1.6 0.5,-1.5 -0.9,0.2 -1.9,-2.9 -1.6,-3.8 0.4,-1 1.1,-3 0.2,-3 -1,-0.1 -3,0.9 -3.5,0.1 z"
   id="path19"
   inkscape:connector-curvature="0"
   style="fill:#ffffff" />
	<path
   class="st1"
   d="m 1371.3,470.1 c 0,0 1.7,-1.3 2.5,-1.3 0.7,0 1.3,0.1 1.2,0.5 -0.1,0.4 -0.3,1.7 -0.1,2.2 0.2,0.5 0.2,0.7 0.5,0.2 0.4,-0.5 0.5,-1.3 0.8,-0.9 0.2,0.4 0.1,0.9 0.4,0.8 0.3,-0.1 0.3,-0.1 0.4,-0.1 0.1,0 0.2,-0.1 0.4,-0.1 0.1,0 -0.2,0.2 -0.2,0.3 -0.1,0.1 -0.2,0.9 -0.4,1.2 -0.2,0.3 -0.3,0.7 -0.3,0.7 0,0 0.2,1 0.5,2.4 0.3,1.4 0.5,2.1 -0.1,1.3 -0.6,-0.8 -0.3,-0.8 -0.8,-1.3 -0.5,-0.5 -0.9,-1 -0.9,-1.3 0,0 -1,0.6 -1.3,0.4 -0.3,-0.2 -0.5,0.5 -0.9,0.9 -0.4,0.3 -0.8,0.4 -1.2,-0.4 -0.4,-0.9 -0.1,-1.5 0.1,-1.6 0.2,-0.1 0.8,0 1.1,-0.1 0.3,-0.1 0.7,-0.6 0.3,-0.6 -0.4,0 -0.8,-1.3 -0.6,-1.8 0.2,-0.5 0.5,-1.2 0.1,-1.3 -0.4,0 -1.4,0.3 -1.5,-0.1 z"
   id="path21"
   inkscape:connector-curvature="0"
   style="fill:#ffffff" />
	<path
   class="st1"
   d="m 1305.1,458.5 c 0,-0.2 -0.2,-6.6 -1.2,-8.7 -1,-2.1 -4.6,-8 -6.5,-11.1 -1.8,-3 -4.1,-6 -4.4,-5.6 -0.4,0.4 1.9,3.9 2,6.3 0.1,2.3 0.6,4.8 1,6.6 0.4,1.8 1.6,3.2 1.5,4.7 -0.1,1.5 0.1,4.4 1.1,8.9 1,4.4 1.6,7.3 1.7,9.5 0.1,2.2 0.1,3.1 -1.5,2.6 -1.6,-0.5 -3.9,-1.9 -4.4,-1.3 -0.5,0.5 -0.8,5.6 0.5,7 1.3,1.5 4.4,1.9 5.7,1.7 1.3,-0.2 0.7,-3.8 1.3,-3.9 0.7,-0.1 3.3,0.3 6.5,-1.9 3.2,-2.3 3.6,-4 3.9,-4.3 0.4,-0.4 0.7,-0.8 0.4,-0.9 -0.2,0 -0.2,0.2 -1.1,-0.4 -0.8,-0.7 -1.9,-0.7 -2.4,-0.7 -0.4,0.1 -0.9,-1 0.1,-2.8 1,-1.8 2.8,-4.1 2.4,-6.7 -0.4,-2.6 -1,-7.5 -1.5,-9.7 -0.5,-2.2 -1.6,-3.8 -1.9,-3.3 -0.4,0.5 0.6,2.2 0.2,4.9 -0.4,2.6 -2.6,6.4 -3,8.3 -0.1,1.5 -0.4,2.2 -0.4,0.8 z"
   id="path23"
   inkscape:connector-curvature="0"
   style="fill:#ffffff" />
	<path
   class="st1"
   d="m 1287.5,562.3 c 0.3,-0.2 1.2,-0.9 1.8,-0.9 0.6,0 0.9,0.2 1.2,0.5 0.3,0.2 0.5,0.3 0.7,0.3 0.2,0 0,0.2 -0.3,0.4 -0.3,0.2 -0.5,1.1 -1,1.7 -0.5,0.6 -1.8,3.5 -3,4.3 -1.2,0.9 -2.7,1.1 -3.5,1.8 -0.8,0.7 -1.5,2.6 -1.9,2.7 -0.4,0.2 -1.4,-1.8 -1.8,-2.6 -0.4,-0.7 0.7,-1.5 1.4,-1.5 0.7,-0.1 1.5,-1 1.1,-1.3 -0.4,-0.2 -3,-5.8 -3.4,-7.5 -0.4,-1.7 -1,-8.1 -1.8,-10.1 -0.8,-2 -0.5,-6.4 -0.2,-6.5 0.3,-0.2 2.1,3.7 2.7,5 0.7,1.3 1,2.1 1.2,2.1 0.1,0.1 0.4,-1 0.4,-1.9 0,-1 -0.2,-2.4 1.5,0.7 1.7,3.2 3.6,4.8 3.5,6.5 -0.1,1.7 -0.1,3.2 0,4.4 0.1,1.2 0.3,2.4 0.3,2.4 0,0 0.8,-0.2 1.1,-0.5 z"
   id="path25"
   inkscape:connector-curvature="0"
   style="fill:#ffffff" />
	<path
   class="st1"
   d="m 1446.9,563.4 c 0.2,-0.2 0.9,-0.7 1.4,-0.7 0.5,0 0.7,0.2 0.9,0.4 0.2,0.2 0.4,0.2 0.5,0.2 0.1,0 0,0.2 -0.2,0.3 -0.2,0.2 -0.4,0.9 -0.8,1.3 -0.4,0.4 -1.3,2.6 -2.2,3.3 -0.9,0.7 -2.1,0.9 -2.7,1.3 -0.6,0.5 -1.2,1.9 -1.5,2.1 -0.3,0.2 -1,-1.4 -1.3,-1.9 -0.2,-0.5 0.5,-1.1 1,-1.2 0.5,-0.1 1.2,-0.8 0.9,-1 -0.3,-0.2 -2.2,-4.4 -2.6,-5.6 -0.4,-1.3 -0.7,-6.1 -1.3,-7.7 -0.6,-1.5 -0.4,-4.8 -0.1,-4.9 0.2,-0.1 1.5,2.8 2.1,3.8 0.5,1 0.8,1.6 0.9,1.6 0.1,0 0.2,-0.7 0.2,-1.5 0,-0.8 -0.1,-1.8 1.2,0.5 1.3,2.4 2.7,3.6 2.7,4.9 -0.1,1.3 -0.1,2.4 0,3.3 0.1,0.9 0.2,1.8 0.2,1.8 0,0 0.5,-0.1 0.7,-0.3 z"
   id="path27"
   inkscape:connector-curvature="0"
   style="fill:#ffffff" />
	<path
   class="st1"
   d="m 1439.2,430.8 c 0.3,-0.1 1.3,-0.4 1.9,-0.2 0.6,0.2 0.9,0.6 1.1,0.9 0.2,0.3 0.4,0.5 0.7,0.5 0.2,0.1 -0.1,0.2 -0.4,0.3 -0.3,0.1 -0.7,0.9 -1.3,1.3 -0.5,0.4 -2.2,2.7 -3.6,3.2 -1.3,0.4 -2.9,0.1 -3.7,0.4 -0.9,0.4 -1.9,1.9 -2.3,1.9 -0.4,0.1 -1,-2.3 -1.3,-3.1 -0.2,-0.9 0.9,-1.2 1.6,-1 0.7,0.2 1.6,-0.5 1.3,-0.9 -0.4,-0.4 -1.9,-6.7 -2.1,-8.4 -0.1,-1.8 0.4,-8.2 0,-10.4 -0.4,-2.2 0.6,-6.3 0.9,-6.4 0.3,-0.1 1.3,4.3 1.8,5.8 0.5,1.5 0.7,2.4 0.8,2.5 0.1,0.1 0.5,-0.8 0.7,-1.8 0.2,-1 0.2,-2.4 1.3,1.3 1.1,3.7 2.7,6 2.3,7.5 -0.4,1.6 -0.6,3 -0.7,4.3 -0.1,1.2 -0.1,2.4 -0.1,2.4 0,0 0.7,0 1.1,-0.1 z"
   id="path29"
   inkscape:connector-curvature="0"
   style="fill:#ffffff" />
	<path
   class="st1"
   d="m 1292.5,420.6 c -0.1,-0.1 -0.2,-0.2 -0.4,-0.4 -0.1,-0.2 -0.3,-0.5 -0.7,-0.7 -0.4,-0.2 -1.1,-0.1 -1.3,-0.1 -0.2,0.1 -0.7,-0.1 -0.7,-0.1 0,0 0.1,-0.8 0.2,-1.6 0.1,-0.8 0.4,-1.7 0.7,-2.7 0.4,-1 -0.6,-2.7 -1.2,-5.2 -0.5,-2.6 -0.7,-1.6 -0.9,-1 -0.2,0.6 -0.4,1.2 -0.5,1.1 -0.1,-0.1 -0.2,-0.7 -0.4,-1.7 -0.2,-1.1 -0.7,-4.1 -0.9,-4.1 -0.2,0 -1.1,2.6 -0.9,4.1 0.2,1.5 -0.5,5.6 -0.5,6.9 0,1.3 0.7,5.5 1,5.8 0.2,0.3 -0.4,0.7 -0.9,0.5 -0.5,-0.2 -1.2,-0.1 -1.1,0.5 0.1,0.5 0.4,2.2 0.7,2.2 0.3,0 1,-0.9 1.6,-1.1 0.6,-0.1 1.6,0.2 2.5,0.1 0.9,-0.1 2.1,-1.5 2.6,-1.7 0.4,-0.2 0.7,-0.7 0.9,-0.7 0.1,0.1 0.3,0 0.2,-0.1 z"
   id="path31"
   inkscape:connector-curvature="0"
   style="fill:#ffffff" />
	<path
   class="st1"
   d="m 1393.9,429.3 c 0,0 2.9,-1.6 4.2,-1.1 1.3,0.5 1.2,1.7 1.7,1.8 0.5,0.1 1.2,0.5 0.9,0.7 -0.4,0.2 -0.9,0.2 -1.2,0.7 -0.3,0.5 -1.6,2.9 -2.6,3.5 -1,0.7 -1.6,0.8 -1.3,1.4 0.4,0.6 2.1,3.6 3.8,3.9 1.8,0.3 3.7,0.7 4.4,2.7 0.7,2 1.3,7.3 2,10.8 0.7,3.5 1.4,13.7 1.2,17.1 -0.2,3.5 -0.1,4.7 -0.9,5.2 -0.8,0.5 -3.5,-4.3 -3.9,-7.6 -0.4,-3.3 -1.2,-8.9 -2.8,-11.5 -1.6,-2.5 -8.4,-9.4 -9.9,-10.8 -1.5,-1.5 -2,-3.3 -2,-3.3 0,0 -2.1,1.1 -3.3,1.6 -0.7,0.3 -3,3.3 -3.4,4.4 -0.4,1 -0.7,1.6 -1.3,1 -0.6,-0.7 -1.3,-1.6 -1.9,-2.7 -0.5,-1 -1.5,-3.2 -0.8,-3.6 0.6,-0.4 1.6,-0.7 2.8,-1.4 1.1,-0.6 2.1,-1.8 3,-3 0.8,-1.2 1.3,-2.7 1.3,-2.9 0,-0.2 -2,-5.8 -2.2,-10.1 -0.2,-4.4 -1.5,-9.7 -1.9,-10.9 -0.5,-1.2 -5.6,-7.1 -6.9,-9.4 -1.4,-2.3 -3.2,-4.9 -0.6,-4.7 2.6,0.2 9.5,3.8 12.1,6 2.7,2.1 5.2,3.6 5.2,6.4 0.1,2.8 -0.7,6.6 0,9.2 0.4,2.5 2.6,6.8 4.3,6.6 z"
   id="path33"
   inkscape:connector-curvature="0"
   style="fill:#ffffff" />
	<path
   class="st1"
   d="m 1283.1,614.6 c 0,0 1.6,-1.8 2.5,-1.9 0.9,0 1,0.7 1.3,0.7 0.3,0 0.9,0 0.6,0.2 -0.2,0.2 -0.5,0.4 -0.6,0.7 -0.1,0.4 -0.6,2.2 -1.2,3 -0.6,0.8 -0.9,1 -0.6,1.2 0.3,0.2 1.8,1.6 2.9,1.4 1.2,-0.3 2.4,-0.6 3.1,0.5 0.7,1.1 1.8,4.3 2.7,6.2 0.9,1.9 2.7,8.1 3,10.3 0.3,2.2 0.5,3 0.1,3.5 -0.4,0.5 -2.7,-1.8 -3.5,-3.6 -0.8,-1.8 -1.9,-5.2 -3.3,-6.4 -1.3,-1.1 -6.6,-3.5 -7.7,-3.9 -1.1,-0.5 -1.7,-1.5 -1.7,-1.5 0,0 -1.2,1.3 -1.9,1.9 -0.4,0.4 -1.5,3 -1.6,3.7 -0.1,0.8 -0.2,1.2 -0.7,1 -0.5,-0.2 -1,-0.7 -1.5,-1.2 -0.5,-0.5 -1.3,-1.6 -1,-2.1 0.3,-0.4 0.9,-0.9 1.5,-1.6 0.6,-0.7 1,-1.8 1.5,-2.7 0.4,-1 0.4,-2.1 0.4,-2.2 0,-0.1 -2,-3 -2.7,-5.7 -0.7,-2.7 -2.2,-5.6 -2.6,-6.3 -0.4,-0.6 -4.4,-2.9 -5.6,-3.9 -1.2,-1 -2.6,-2.2 -1,-2.8 1.6,-0.6 6.4,-0.3 8.4,0.3 1.9,0.5 3.7,0.8 4.1,2.6 0.4,1.8 0.4,4.3 1.2,5.8 0.9,1.4 2.9,3.4 3.9,2.8 z"
   id="path35"
   inkscape:connector-curvature="0"
   style="fill:#ffffff" />
	<path
   class="st1"
   d="m 1331.5,590.9 c 0,0 -0.1,-2.6 -2.9,-5.2 -2.9,-2.7 -7.7,-9.5 -8.1,-11.2 -0.4,-1.7 -1.9,-4.6 -2,-5.3 -0.2,-0.7 -0.9,1.2 -0.1,3.7 0.8,2.5 1.8,5.2 2,6.7 0.2,1.6 1.6,7.1 4.9,9.5 3.3,2.4 4.8,3.8 4.7,4.4 -0.2,0.6 -0.9,1.4 -1.6,1.1 -0.7,-0.3 -2.7,-1.6 -2.9,-1 -0.2,0.6 0.7,6.4 3,7.8 2.4,1.4 5.1,0.4 5.5,-0.1 0.4,-0.4 -1.7,-1.2 -1.3,-2.2 0.4,-1.1 1.4,-0.4 2.1,-1.1 0.7,-0.7 2.4,-0.1 2.8,0 0.4,0.1 -0.2,-0.6 -0.2,-0.6 0,0 3.6,0.9 5,1.3 1.4,0.4 5.1,-0.1 6.1,0.5 1,0.6 9.7,0.6 10.1,-0.4 0.2,-0.6 -1.3,-0.3 -2.7,-0.3 -1.4,0 -5.8,-0.7 -7.5,-1.8 -1.7,-1.1 -4,-2.6 -5.1,-2.9 -1.1,-0.4 -4.4,0.3 -5.6,0.4 -1.3,0 -2,-0.1 -2,-0.1 0,0 -0.7,-1.5 -1.4,-2.1 -0.9,-0.7 -2.8,-1.1 -2.8,-1.1 z"
   id="path37"
   inkscape:connector-curvature="0"
   style="fill:#ffffff" />
	<path
   class="st1"
   d="m 1321.1,441.9 c 0,0 -0.1,-1.4 -1.6,-2.9 -1.6,-1.5 -4.3,-5.3 -4.5,-6.2 -0.2,-1 -1,-2.6 -1.2,-2.9 -0.1,-0.4 -0.5,0.7 -0.1,2.1 0.4,1.4 1,2.9 1.1,3.8 0.1,0.9 0.9,3.9 2.7,5.3 1.8,1.3 2.7,2.1 2.6,2.4 -0.1,0.4 -0.5,0.8 -0.9,0.6 -0.4,-0.2 -1.5,-0.9 -1.6,-0.5 -0.1,0.4 0.4,3.5 1.7,4.3 1.3,0.8 2.9,0.2 3,0 0.2,-0.2 -0.9,-0.7 -0.7,-1.3 0.2,-0.6 0.8,-0.2 1.2,-0.6 0.4,-0.4 1.3,-0.1 1.5,0 0.2,0.1 -0.1,-0.3 -0.1,-0.3 0,0 1.9,0.5 2.8,0.7 0.8,0.2 2.8,0 3.4,0.3 0.5,0.3 5.4,0.3 5.6,-0.2 0.1,-0.4 -0.7,-0.2 -1.5,-0.2 -0.8,0 -3.2,-0.4 -4.1,-1 -0.9,-0.7 -2.2,-1.4 -2.9,-1.6 -0.6,-0.2 -2.4,0.2 -3.2,0.2 -0.8,0 -1.1,-0.1 -1.1,-0.1 0,0 -0.4,-0.9 -0.8,-1.2 -0.2,-0.4 -1.3,-0.7 -1.3,-0.7 z"
   id="path39"
   inkscape:connector-curvature="0"
   style="fill:#ffffff" />
	<path
   class="st1"
   d="m 1289.3,477.9 c -0.4,0.1 -1.7,0.1 -2.2,-0.1 -0.5,-0.2 -1.2,-0.5 -1.5,-0.5 -0.3,-0.1 -1.2,0.4 -1.6,0.4 -0.4,0.1 -0.5,0.1 -0.5,0.1 0,0 -0.2,-0.4 -0.4,-0.5 -0.2,-0.1 -0.8,-0.1 -0.8,-0.1 0,0 -0.1,-0.7 -1,-1.3 -0.9,-0.6 -2.4,-2.2 -2.6,-2.7 -0.2,-0.5 -0.7,-1.2 -0.7,-1.4 -0.1,-0.2 -0.2,0.4 0.1,1.1 0.3,0.7 0.6,1.4 0.7,1.8 0.1,0.4 0.7,1.9 1.6,2.4 1,0.5 1.5,0.8 1.5,1 0,0.2 -0.2,0.4 -0.4,0.4 -0.2,-0.1 -0.8,-0.3 -0.9,-0.1 -0.1,0.2 0.4,1.8 1.1,2 0.7,0.2 1.5,-0.2 1.6,-0.3 0.1,-0.1 -0.5,-0.2 -0.4,-0.5 0.1,-0.3 0.4,-0.2 0.5,-0.4 0.2,-0.2 0.7,-0.2 0.8,-0.2 0.1,0 -0.1,-0.2 -0.1,-0.2 0,0 1,0.1 1.5,0.1 0.4,0.1 1.5,-0.3 1.8,-0.2 0.3,0.1 2.8,-0.4 2.9,-0.7 -0.2,-0.3 -0.6,-0.1 -1,-0.1 z"
   id="path41"
   inkscape:connector-curvature="0"
   style="fill:#ffffff" />
	<path
   class="st1"
   d="m 1449.7,470.7 c -1.2,-0.3 -4.7,-1.7 -5.9,-3 -1.2,-1.3 -3,-2.9 -3.9,-3.3 -0.8,-0.5 -3.6,-0.6 -4.6,-0.9 -1,-0.2 -1.6,-0.5 -1.6,-0.5 0,0 -0.4,-1.3 -0.9,-2 -0.5,-0.6 -2.1,-1.3 -2.1,-1.3 0,0 0.2,-2.1 -1.9,-4.8 -2.1,-2.7 -5.3,-9.2 -5.5,-10.7 -0.2,-1.5 -1.1,-4.1 -1.2,-4.7 -0.1,-0.7 -0.8,0.8 -0.4,3 0.4,2.2 0.9,4.6 1,5.9 0.1,1.3 0.7,6.1 3.1,8.7 2.4,2.6 3.6,4 3.3,4.4 -0.2,0.5 -0.9,1 -1.5,0.5 -0.6,-0.4 -2.1,-1.8 -2.2,-1.4 -0.2,0.4 -0.1,5.3 1.8,6.9 1.8,1.6 4.1,1.3 4.4,1 0.4,-0.2 -1.3,-1.3 -0.8,-2.1 0.5,-0.8 1.2,-0.1 1.8,-0.5 0.6,-0.4 1.9,0.4 2.2,0.5 0.4,0.1 -0.1,-0.5 -0.1,-0.5 0,0 2.8,1.4 3.9,2 1.2,0.6 4.1,1 4.9,1.6 0.8,0.7 7.8,2.4 8.3,1.7 0.3,-0.1 -1.1,-0.2 -2.1,-0.5 z"
   id="path43"
   inkscape:connector-curvature="0"
   style="fill:#ffffff" />
	<path
   class="st1"
   d="m 1381.4,501.9 c 0,0 -3.3,-4.2 -3.9,-8 -0.6,-3.8 -1.8,-7.9 -3.6,-9.5 -1.8,-1.7 -6.4,-6.7 -9.4,-8.4 -3,-1.7 -3.2,-0.4 -1.8,1.2 2.9,3.5 3.3,6.3 3.9,9.4 0.5,3 1.1,11.2 3.7,15 2.6,3.8 4.6,6 4.6,7.5 0.1,1.5 -0.8,2.1 -0.8,2.1 0,0 -3,2 -3.9,2.1 -0.9,0.1 -1,1.3 -0.3,4.3 0.7,3 1.9,4.4 4.1,3.9 2.1,-0.5 1.9,0.2 2.3,-2.1 0.4,-2.2 -0.2,-3.6 0.8,-4.3 1,-0.7 1.7,-1.5 2.5,-1 0.9,0.5 7,8.7 10,9.4 3,0.7 2.7,0 4.4,1.5 1.8,1.5 5.1,8 6.2,7.4 1.1,-0.6 -1.3,-5.6 -2.9,-9.5 -1.6,-3.9 -4,-9.5 -5.3,-10.3 -1.3,-0.9 -6.1,-2.4 -6.7,-4.5 0,0 0.5,-1.1 1.3,-1.5 0.8,-0.4 1.5,-0.2 2.2,-0.8 0.7,-0.6 1.6,-0.4 1.6,-0.4 0,0 -0.5,-0.8 -1,-0.9 -0.5,-0.1 -1.2,-3 -3.3,-2.7 -2.1,0.2 -2.8,0.5 -3.4,0.5 -0.3,0.1 -1.3,-0.4 -1.3,-0.4 z"
   id="path45"
   inkscape:connector-curvature="0"
   style="fill:#ffffff" />
	<path
   class="st1"
   d="m 1219.1,484.7 c 0,0 -2,-2.6 -2.4,-5 -0.4,-2.4 -1.1,-4.9 -2.2,-6 -1.1,-1 -4,-4.2 -5.8,-5.2 -1.9,-1 -2,-0.2 -1.2,0.8 1.8,2.1 2.1,3.9 2.4,5.8 0.4,1.9 0.7,7 2.3,9.4 1.6,2.3 2.9,3.7 2.9,4.7 0.1,1 -0.5,1.3 -0.5,1.3 0,0 -1.9,1.2 -2.4,1.3 -0.5,0.1 -0.7,0.8 -0.2,2.7 0.5,1.9 1.2,2.8 2.6,2.5 1.3,-0.3 1.2,0.1 1.5,-1.3 0.3,-1.4 -0.1,-2.2 0.5,-2.7 0.6,-0.4 1,-0.9 1.6,-0.6 0.5,0.3 4.4,5.5 6.3,5.9 1.9,0.4 1.7,0 2.8,1 1.1,1 3.2,5 3.9,4.6 0.7,-0.4 -0.8,-3.5 -1.8,-6 -1,-2.5 -2.5,-5.9 -3.3,-6.4 -0.8,-0.5 -3.8,-1.5 -4.1,-2.8 0,0 0.3,-0.7 0.8,-0.9 0.5,-0.2 1,-0.1 1.4,-0.5 0.5,-0.4 1,-0.2 1,-0.2 0,0 -0.3,-0.5 -0.6,-0.5 -0.3,-0.1 -0.7,-1.9 -2.1,-1.7 -1.3,0.1 -1.8,0.3 -2.1,0.3 -0.7,-0.1 -1.3,-0.5 -1.3,-0.5 z"
   id="path47"
   inkscape:connector-curvature="0"
   style="fill:#ffffff" />
	<path
   class="st1"
   d="m 1348.4,469 c 0,0 -0.9,-2.1 -0.6,-5.5 0.3,-3.4 0.6,-6.4 -0.1,-8.6 -0.7,-2.2 -2.7,-7.6 -3.4,-11.9 -0.7,-4.3 -1.4,-8.1 -1.9,-8.3 -0.5,-0.2 -3,8.7 -2.6,14.6 0.4,5.9 1,6.9 1.2,8.6 0.2,1.7 -0.5,3.1 -0.4,6.7 0.1,3.6 1,7.5 1,8.3 0.1,0.7 -0.5,1.6 -1.2,2.2 -0.6,0.7 -2.2,1.3 -2.9,1.7 -0.7,0.3 -1.4,0.3 -1.3,0.9 0.1,0.6 0.2,2.2 0.9,3 0.7,0.8 1.5,1 2.1,1.1 0.5,0.1 1,-2.4 1.6,-2.6 0.6,-0.1 3.5,-1.1 4,-1 0.5,0.1 1.8,1.6 3.8,1 2,-0.6 2.6,-0.4 3.8,0.2 1.2,0.5 3.8,2.5 4,2.4 0.3,-0.1 -0.3,-1.9 -0.9,-2.7 -0.9,-1.2 -1.1,-1.3 -1.6,-2.2 -0.5,-0.9 -1.9,-2.4 -2.6,-2.3 0,0 0.7,-1.9 1.5,-2.6 0.9,-0.7 1.6,-1.8 2.1,-2 0.4,-0.1 1.2,-0.1 1.3,-0.3 0.1,-0.2 -1.5,-0.7 -1.5,-0.7 0,0 -0.4,-1.6 -2.4,-1.8 -1.9,0.1 -3.3,1.6 -3.9,1.8 z"
   id="path49"
   inkscape:connector-curvature="0"
   style="fill:#ffffff" />
	<path
   class="st1"
   d="m 1421.8,599.5 c 0,0 -0.8,-1.9 -0.5,-4.9 0.2,-3 0.5,-5.7 -0.1,-7.5 -0.6,-1.9 -2.4,-6.7 -3,-10.5 -0.6,-3.8 -1.2,-7.2 -1.6,-7.3 -0.4,-0.2 -2.6,7.7 -2.2,12.9 0.4,5.2 0.9,6.1 1.1,7.6 0.2,1.5 -0.4,2.7 -0.3,6 0.1,3.2 0.8,6.7 0.9,7.3 0.1,0.6 -0.5,1.5 -1,2 -0.5,0.5 -1.9,1.2 -2.6,1.5 -0.7,0.3 -1.2,0.2 -1.2,0.8 0.1,0.5 0.2,2 0.7,2.7 0.5,0.7 1.3,0.9 1.8,1 0.4,0.1 0.9,-2.2 1.5,-2.3 0.5,-0.1 3,-0.9 3.5,-0.9 0.5,0.1 1.6,1.5 3.4,0.9 1.8,-0.5 2.3,-0.4 3.4,0.2 1,0.5 3.3,2.2 3.6,2.1 0.2,-0.1 -0.2,-1.6 -0.8,-2.4 -0.7,-1 -1,-1.2 -1.5,-2 -0.5,-0.9 -1.8,-2.1 -2.2,-2.1 0,0 0.6,-1.6 1.3,-2.2 0.7,-0.6 1.5,-1.6 1.8,-1.8 0.4,-0.1 1,-0.1 1.2,-0.3 0.1,-0.2 -1.3,-0.5 -1.3,-0.5 0,0 -0.4,-1.4 -2.2,-1.6 -2,-0.3 -3.2,1 -3.7,1.3 z"
   id="path51"
   inkscape:connector-curvature="0"
   style="fill:#ffffff" />
	<path
   class="st1"
   d="m 1257.8,476.1 c 0,0 -0.5,-0.9 -0.5,-2.6 0,-1.7 0,-3.1 -0.4,-4 -0.4,-0.9 -1.6,-3.3 -2.1,-5.3 -0.5,-2 -1,-3.7 -1.2,-3.8 -0.2,-0.1 -1,4.4 -0.5,7.1 0.5,2.7 0.8,3.2 1,3.9 0.2,0.7 -0.1,1.5 0.1,3.2 0.2,1.7 0.8,3.5 0.9,3.8 0.1,0.3 -0.2,0.9 -0.4,1.2 -0.2,0.4 -1,0.9 -1.3,1 -0.4,0.2 -0.7,0.3 -0.6,0.5 0.1,0.2 0.2,1 0.5,1.3 0.3,0.3 0.8,0.4 1,0.3 0.2,0 0.4,-1.3 0.7,-1.4 0.3,-0.1 1.6,-0.9 1.8,-0.8 0.2,0 0.9,0.6 1.9,0.1 0.9,-0.5 1.2,-0.4 1.8,-0.2 0.6,0.2 1.9,0.9 2,0.8 0.1,-0.1 -0.2,-0.9 -0.5,-1.2 -0.4,-0.5 -0.6,-0.5 -0.9,-0.9 -0.3,-0.4 -1,-1 -1.3,-0.9 0,0 0.2,-1 0.6,-1.3 0.4,-0.4 0.7,-1 0.9,-1.2 0.2,-0.1 0.5,-0.2 0.6,-0.2 0.1,-0.1 -0.7,-0.2 -0.7,-0.2 0,0 -0.2,-0.7 -1.2,-0.6 -1.2,0.3 -1.9,1.2 -2.2,1.4 z"
   id="path53"
   inkscape:connector-curvature="0"
   style="fill:#ffffff" />
	<path
   class="st1"
   d="m 1387.6,611 c -0.3,-0.2 -0.4,-0.2 -0.5,-0.4 -0.2,-0.2 -0.7,-0.4 -0.8,-0.3 0,0 0.1,-0.5 0.2,-0.9 0.2,-0.3 0.3,-0.7 0.4,-0.8 0.1,-0.1 0.3,-0.2 0.3,-0.2 0,0 -0.4,0 -0.4,0 0,0 -0.2,-0.4 -0.7,-0.1 -0.5,0.2 -0.8,0.8 -1,0.9 0,0 -0.4,-0.4 -0.5,-1.3 -0.1,-0.9 -0.2,-1.8 -0.5,-2.2 -0.3,-0.5 -1.2,-1.6 -1.6,-2.7 -0.4,-1 -0.9,-1.9 -1,-1.9 -0.1,0 -0.2,2.6 0.2,4.1 0.5,1.5 0.7,1.6 0.9,2.1 0.1,0.4 0.1,0.9 0.3,1.8 0.2,0.9 0.7,1.8 0.8,2 0.1,0.2 -0.1,0.5 -0.2,0.7 -0.1,0.2 -0.5,0.6 -0.7,0.8 -0.2,0.2 -0.4,0.2 -0.3,0.4 0.1,0.1 0.2,0.5 0.4,0.7 0.2,0.1 0.5,0.1 0.6,0 0.1,-0.1 0.1,-0.8 0.3,-0.9 0.2,-0.1 0.9,-0.7 1,-0.7 0.1,-0.1 0.5,0.2 1,-0.2 0.5,-0.4 0.7,-0.4 1,-0.4 0.3,0 1.1,0.2 1.2,0.1 0.1,0 -0.2,-0.4 -0.4,-0.6 z"
   id="path55"
   inkscape:connector-curvature="0"
   style="fill:#ffffff" />
	<path
   class="st1"
   d="m 1322.9,526.3 c -0.7,-0.4 -0.9,-0.4 -1.3,-0.9 -0.5,-0.4 -1.5,-0.9 -1.9,-0.6 0,0 0.1,-1.3 0.5,-2 0.4,-0.7 0.7,-1.6 0.9,-1.8 0.2,-0.2 0.7,-0.4 0.7,-0.6 0.1,-0.2 -1,0.1 -1,0.1 0,0 -0.5,-0.8 -1.8,-0.3 -1.3,0.5 -1.9,1.9 -2.2,2.2 0,0 -0.9,-1 -1.2,-3.1 -0.4,-2.1 -0.6,-4.1 -1.3,-5.1 -0.7,-1 -2.7,-3.7 -3.8,-6.1 -1.1,-2.4 -2.1,-4.4 -2.4,-4.4 -0.3,0 -0.5,6.2 0.7,9.6 1.2,3.4 1.7,3.8 2.1,4.8 0.4,1 0.2,2 0.8,4.1 0.6,2.1 1.8,4.3 1.9,4.6 0.1,0.4 -0.1,1.2 -0.4,1.8 -0.2,0.6 -1.1,1.5 -1.5,1.9 -0.4,0.4 -0.8,0.6 -0.7,1 0.1,0.3 0.5,1.3 1,1.6 0.5,0.3 1.1,0.1 1.4,0 0.3,-0.1 0.2,-1.8 0.6,-2.1 0.4,-0.3 1.9,-1.8 2.2,-1.8 0.3,-0.1 1.3,0.4 2.4,-0.6 1.1,-1 1.5,-1.1 2.3,-1.1 0.8,-0.1 2.6,0.3 2.8,0.2 0.3,-0.1 -0.3,-1.1 -0.8,-1.4 z"
   id="path57"
   inkscape:connector-curvature="0"
   style="fill:#ffffff" />
	<path
   class="st1"
   d="m 1361.4,539 c 0,0 -0.6,-1.2 -1.4,-0.9 -0.8,0.3 -1.3,0.7 -1.8,0.6 -0.5,-0.1 -2.4,-0.6 -3,-3.4 -0.6,-2.8 0.2,-7.1 -1.3,-8 -1.6,-1 -6,-2.2 -11,-1.5 -5,0.7 -5.5,0.5 -3.8,2.2 1.6,1.7 4.1,2.2 5,2.2 0.9,0 2.7,0.3 3.5,1.2 0.7,0.9 1.2,3 2.3,6 1.2,3 2.6,6.3 2.4,7.3 -0.1,1 -1,2.2 -2,2.8 -1,0.5 -1.9,0.8 -1.7,1.3 0.2,0.5 1.3,1.2 1.8,1.7 0.5,0.5 1.1,1.3 1.3,0.8 0.2,-0.5 0.9,-2.4 2.1,-2.9 1.2,-0.5 1.8,-0.3 3.7,-1.9 1.9,-1.6 3.1,-4.1 3.3,-4.6 0.2,-0.4 1,0.3 1.4,1 0.4,0.7 0.9,2.5 2,3.7 1.1,1.2 1.5,3.3 2.2,3.6 0.8,0.4 0.5,-4.8 0.5,-7.3 -0.1,-2.6 -0.2,-3.8 -0.8,-5 -0.6,-1.3 -1.2,-1.5 -1.8,-1 -0.4,0.6 -2.3,2.1 -2.9,2.1 z"
   id="path59"
   inkscape:connector-curvature="0"
   style="fill:#ffffff" />
	<path
   class="st1"
   d="m 1279.8,436.2 c 0,0 -0.1,-0.2 -0.3,-0.2 -0.2,0.1 -0.3,0.2 -0.4,0.1 -0.1,0 -0.5,-0.1 -0.7,-0.8 -0.1,-0.6 0.1,-1.6 -0.3,-1.8 -0.4,-0.2 -1.3,-0.5 -2.4,-0.3 -1.1,0.2 -1.2,0.1 -0.9,0.5 0.4,0.4 0.9,0.5 1.1,0.5 0.2,0 0.6,0.1 0.8,0.2 0.2,0.2 0.2,0.7 0.5,1.3 0.2,0.7 0.5,1.4 0.5,1.6 0,0.2 -0.2,0.5 -0.4,0.6 -0.2,0.1 -0.4,0.2 -0.4,0.3 0.1,0.1 0.3,0.2 0.4,0.4 0.1,0.1 0.2,0.3 0.3,0.2 0.1,-0.1 0.2,-0.5 0.5,-0.7 0.2,-0.1 0.4,-0.1 0.9,-0.4 0.5,-0.3 0.7,-0.9 0.7,-1 0.1,-0.1 0.2,0.1 0.3,0.2 0.1,0.1 0.2,0.5 0.4,0.9 0.2,0.2 0.3,0.7 0.5,0.8 0.2,0.1 0.1,-1.1 0.1,-1.6 0,-0.5 -0.1,-0.9 -0.2,-1.2 -0.1,-0.3 -0.3,-0.4 -0.4,-0.2 0,0.2 -0.5,0.6 -0.6,0.6 z"
   id="path61"
   inkscape:connector-curvature="0"
   style="fill:#ffffff" />
	<path
   class="st1"
   d="m 1444.2,498 c 0,0 -0.2,-0.4 -0.4,-0.3 -0.2,0.1 -0.4,0.2 -0.5,0.2 -0.1,0 -0.8,-0.2 -1,-1.1 -0.2,-0.9 0.1,-2.3 -0.4,-2.6 -0.5,-0.3 -1.9,-0.7 -3.6,-0.5 -1.6,0.2 -1.8,0.2 -1.2,0.7 0.5,0.5 1.3,0.7 1.6,0.7 0.3,0 0.9,0.1 1.1,0.4 0.2,0.3 0.4,1 0.7,1.9 0.4,1 0.8,2.1 0.8,2.4 0,0.3 -0.3,0.7 -0.7,0.9 -0.3,0.2 -0.6,0.2 -0.5,0.4 0.1,0.2 0.4,0.4 0.5,0.5 0.1,0.2 0.4,0.4 0.4,0.2 0.1,-0.2 0.3,-0.8 0.7,-0.9 0.4,-0.2 0.6,-0.1 1.2,-0.6 0.6,-0.5 1,-1.3 1.1,-1.5 0.1,-0.1 0.3,0.1 0.4,0.3 0.1,0.2 0.3,0.8 0.7,1.2 0.4,0.4 0.5,1.1 0.7,1.2 0.2,0.1 0.2,-1.6 0.1,-2.4 0,-0.9 -0.1,-1.2 -0.2,-1.6 -0.2,-0.4 -0.4,-0.5 -0.5,-0.3 -0.2,0.2 -0.8,0.7 -1,0.8 z"
   id="path63"
   inkscape:connector-curvature="0"
   style="fill:#ffffff" />
</g>
</svg>